<?xml version="1.0" standalone="no"?>
<!DOCTYPE svg PUBLIC "-//W3C//DTD SVG 20010904//EN" "http://www.w3.org/TR/2001/REC-SVG-20010904/DTD/svg10.dtd">
<svg version="1.0" xmlns="http://www.w3.org/2000/svg"
  viewBox="0 0 500.000000 500.000000">
  <g transform="translate(-250.000000,750.000000) scale(0.100000,-0.100000)"
    fill="#FFFFFF" stroke="none">
    <path
      d="M5820 7200 c-212 -28 -423 -146 -552 -309 -59 -73 -158 -256 -158
-291 0 -25 -21 -40 -55 -40 -28 0 -32 5 -49 53 -164 474 -616 697 -1086 537
-128 -44 -304 -154 -354 -222 -24 -34 -15 -71 25 -101 l27 -19 78 27 c70 24
89 27 179 23 55 -3 119 -12 143 -20 207 -76 382 -302 382 -494 0 -66 -13 -69
-126 -33 -166 53 -217 58 -580 59 l-330 0 -33 -34 c-31 -32 -33 -39 -29 -83
10 -104 125 -293 233 -382 113 -93 317 -168 486 -178 l97 -6 11 -61 c16 -83
49 -184 72 -222 10 -17 44 -62 74 -100 l56 -69 -7 -695 c-4 -382 -4 -726 0
-764 6 -55 13 -73 33 -92 37 -34 75 -31 109 9 l27 32 -7 385 c-3 212 -8 423
-11 470 -2 47 -2 74 1 60 3 -14 19 -72 35 -130 44 -154 85 -235 164 -318 l67
-71 -12 -53 c-6 -29 -14 -109 -17 -178 -8 -190 28 -316 145 -514 27 -45 65
-111 85 -147 31 -56 95 -129 113 -129 3 0 18 7 34 15 29 15 62 61 75 104 4 14
25 46 46 73 96 122 178 310 200 458 12 88 7 279 -10 336 -8 29 -6 35 26 65 95
91 162 222 185 361 8 51 14 66 19 52 4 -10 8 -203 8 -427 1 -260 5 -415 11
-428 10 -18 59 -49 79 -49 5 0 24 12 41 27 l32 26 -4 762 -3 762 59 77 c67 87
111 190 128 300 l11 74 106 5 c60 3 141 14 186 26 108 29 253 101 307 153 77
76 166 202 198 282 37 94 39 145 6 183 l-24 28 -354 0 c-338 0 -357 -1 -441
-23 -48 -13 -119 -36 -156 -52 -50 -20 -72 -25 -80 -17 -17 17 -14 177 4 228
45 128 165 259 287 313 116 51 297 62 398 25 90 -34 106 -34 134 -6 32 33 33
61 2 102 -32 42 -187 147 -273 186 -140 63 -342 97 -473 79z m260 -168 l75
-26 -50 -7 c-56 -7 -131 -35 -157 -57 -15 -13 -24 -8 -88 49 l-71 64 43 6 c72
11 169 -1 248 -29z m-1761 19 c22 -6 19 -10 -47 -63 l-71 -57 -62 31 c-34 17
-84 33 -111 36 -127 12 23 59 192 60 41 0 86 -3 99 -7z m286 -126 c55 -41 101
-79 103 -84 2 -5 -12 -12 -30 -16 -56 -11 -90 -27 -168 -77 l-75 -49 -27 33
c-16 18 -36 45 -45 60 -9 15 -25 29 -36 32 -18 4 -16 9 19 51 20 26 55 55 75
66 21 10 43 28 49 39 6 11 16 20 23 20 7 0 57 -34 112 -75z m1114 -8 c45 -43
81 -81 81 -86 0 -4 -10 -16 -21 -27 -12 -10 -39 -40 -59 -66 l-38 -47 -23 26
c-31 33 -147 91 -198 99 -23 4 -41 12 -41 18 1 34 171 168 207 163 6 -1 48
-37 92 -80z m-890 -281 c17 -41 31 -79 31 -84 0 -6 -31 -18 -70 -27 -39 -10
-105 -37 -152 -65 l-83 -47 -8 31 c-4 17 -15 53 -23 80 l-15 49 33 35 c43 45
160 100 215 101 l41 1 31 -74z m599 50 c57 -16 84 -30 149 -83 l42 -35 -26
-71 c-15 -40 -27 -73 -28 -75 -1 -1 -45 17 -97 41 -92 43 -135 59 -189 71
l-26 6 14 47 c30 98 40 113 75 113 18 0 57 -7 86 -14z m-88 -340 c114 -41 176
-75 258 -144 128 -107 218 -284 229 -452 9 -146 -20 -243 -103 -345 -59 -73
-69 -96 -103 -231 -17 -65 -53 -202 -81 -304 -27 -102 -62 -238 -76 -303 -29
-135 -43 -172 -90 -244 -79 -120 -170 -168 -314 -167 -109 1 -183 32 -252 105
-65 70 -91 128 -142 324 -24 94 -49 183 -56 199 -25 67 -83 278 -105 385 -30
147 -33 156 -90 222 -102 118 -131 211 -121 389 8 158 48 262 131 343 25 25
45 49 45 55 0 22 162 124 243 154 152 57 160 58 347 54 172 -3 177 -4 280 -40z
m-1259 -161 c122 -15 179 -30 179 -47 0 -5 -8 -22 -18 -36 -10 -15 -22 -35
-25 -44 -5 -15 -11 -16 -32 -8 -57 22 -235 6 -235 -21 0 -13 52 -59 80 -70 13
-6 46 -15 72 -20 43 -10 48 -14 48 -37 0 -52 -10 -56 -112 -49 -251 17 -458
141 -532 318 l-15 35 237 -4 c130 -2 289 -10 353 -17z m2559 5 c0 -33 -106
-165 -171 -214 -95 -72 -298 -135 -436 -136 -52 0 -53 1 -53 29 0 24 5 29 31
35 73 14 269 130 269 158 0 12 -136 3 -255 -18 -44 -7 -87 -14 -96 -14 -15 0
-49 58 -49 85 0 12 116 56 205 78 42 10 555 7 555 -3z m-1386 -2360 c1 -86 -3
-135 -13 -158 l-14 -32 -25 25 c-14 14 -30 24 -36 22 -5 -2 -16 -42 -22 -89
-13 -84 -67 -228 -86 -228 -22 0 -74 182 -85 293 -6 74 -19 84 -45 37 -9 -17
-21 -30 -27 -30 -28 0 -38 120 -25 283 l7 76 41 -17 c62 -25 208 -22 266 4
l45 20 9 -40 c4 -23 9 -97 10 -166z" />
    <path
      d="M4430 5760 c-19 -59 0 -113 56 -155 22 -16 53 -39 68 -50 21 -16 31
-38 48 -108 18 -74 26 -90 46 -98 41 -16 90 -11 113 12 48 48 4 229 -81 331
-35 42 -138 97 -197 105 -39 5 -39 4 -53 -37z" />
    <path
      d="M5620 5781 c-89 -28 -187 -116 -234 -214 -14 -28 -29 -80 -32 -113
-6 -54 -4 -64 14 -82 56 -56 120 -35 138 43 19 88 48 129 117 169 64 38 87 69
87 120 0 71 -29 95 -90 77z" />
    <path
      d="M4854 4645 c-9 -13 -16 -42 -16 -62 0 -34 7 -45 75 -108 l75 -70 4
-63 c6 -80 28 -108 82 -98 49 9 66 38 66 111 l0 60 51 35 c108 73 138 142 84
195 -13 14 -30 25 -37 25 -7 0 -36 -18 -63 -41 -63 -52 -101 -72 -126 -64 -11
4 -45 29 -76 56 -63 55 -94 62 -119 24z" />
    <path d="M7621 6965 c1 -19 18 -51 18 -35 0 8 -4 22 -9 30 -5 8 -9 11 -9 5z" />
  </g>
</svg> 